<svg width="22" height="22" viewBox="0 0 22 22" fill="none" xmlns="http://www.w3.org/2000/svg">
<rect x="0.5" y="0.5" width="21" height="21" rx="6.5" fill="white" stroke="#FFC0E6"/>
<rect x="1" y="1" width="20" height="20" rx="6" fill="#9D11B4"/>
<path d="M18.1368 7.2308L12.0115 16.1334C11.5767 16.7654 11.3592 17.0815 11.0847 17.1946C10.8494 17.2916 10.5859 17.2952 10.348 17.2046C10.0705 17.099 9.84456 16.789 9.39264 16.169L5.48888 10.8135C5.1749 10.3828 5.03749 9.84827 5.10479 9.3195C5.32285 7.60613 7.40797 6.88281 8.64023 8.09307L10.4625 9.88277C10.6042 10.022 10.8352 10.0083 10.9594 9.85328L14.9573 4.86725C15.7348 3.89767 17.2024 3.87441 18.0102 4.81887C18.5939 5.50134 18.6458 6.49096 18.1368 7.2308Z" fill="white"/>
</svg>
