<svg width="20" height="20" viewBox="0 0 20 20" fill="none" xmlns="http://www.w3.org/2000/svg">
<path d="M0 6C0 2.68629 2.68629 0 6 0H14C17.3137 0 20 2.68629 20 6V14C20 17.3137 17.3137 20 14 20H6C2.68629 20 0 17.3137 0 14V6Z" fill="#9D11B4"/>
<path d="M17.1368 6.2308L11.0115 15.1334C10.5767 15.7654 10.3592 16.0815 10.0847 16.1946C9.84937 16.2916 9.58591 16.2952 9.34803 16.2046C9.07051 16.099 8.84456 15.789 8.39264 15.169L4.48888 9.8135C4.1749 9.38276 4.03749 8.84827 4.10479 8.3195C4.32285 6.60613 6.40797 5.88281 7.64023 7.09307L9.46248 8.88277C9.60421 9.02196 9.83516 9.00826 9.95942 8.85328L13.9573 3.86725C14.7348 2.89767 16.2024 2.87441 17.0102 3.81887C17.5939 4.50134 17.6458 5.49096 17.1368 6.2308Z" fill="white"/>
</svg>
